<svg width="86" height="40" viewBox="0 0 86 40" fill="none" xmlns="http://www.w3.org/2000/svg">
<rect width="86" height="40" rx="4" fill="white" fill-opacity="0.3"/>
<path d="M22.12 27.2C21.2 27.2 20.3067 27.06 19.44 26.78C18.5733 26.4867 17.8667 26.0933 17.32 25.6L18.16 23.64C19.3733 24.5733 20.68 25.04 22.08 25.04C22.92 25.04 23.5733 24.8267 24.04 24.4C24.52 23.96 24.76 23.3733 24.76 22.64C24.76 21.8933 24.5333 21.2933 24.08 20.84C23.6267 20.3733 23.0067 20.14 22.22 20.14C21.1 20.14 20.1733 20.5867 19.44 21.48H17.72V12.9H26.38V15.02H20.22V18.84C20.9267 18.3067 21.7933 18.04 22.82 18.04C23.7133 18.04 24.4867 18.2333 25.14 18.62C25.8067 18.9933 26.32 19.52 26.68 20.2C27.0533 20.8667 27.24 21.6467 27.24 22.54C27.24 23.46 27.0333 24.2733 26.62 24.98C26.2067 25.6733 25.6133 26.22 24.84 26.62C24.08 27.0067 23.1733 27.2 22.12 27.2ZM33.9922 27.2C32.3255 27.2 31.0522 26.5733 30.1722 25.32C29.2922 24.0533 28.8522 22.2533 28.8522 19.92C28.8522 17.56 29.2922 15.7667 30.1722 14.54C31.0522 13.3133 32.3255 12.7 33.9922 12.7C35.6722 12.7 36.9455 13.3133 37.8122 14.54C38.6922 15.7667 39.1322 17.5533 39.1322 19.9C39.1322 22.2467 38.6922 24.0533 37.8122 25.32C36.9322 26.5733 35.6589 27.2 33.9922 27.2ZM33.9922 25.1C34.8989 25.1 35.5655 24.6867 35.9922 23.86C36.4322 23.02 36.6522 21.7 36.6522 19.9C36.6522 18.1133 36.4322 16.82 35.9922 16.02C35.5655 15.2067 34.8989 14.8 33.9922 14.8C33.0989 14.8 32.4322 15.2067 31.9922 16.02C31.5522 16.82 31.3322 18.1133 31.3322 19.9C31.3322 21.7 31.5522 23.02 31.9922 23.86C32.4322 24.6867 33.0989 25.1 33.9922 25.1ZM45.9844 27.2C44.3177 27.2 43.0444 26.5733 42.1644 25.32C41.2844 24.0533 40.8444 22.2533 40.8444 19.92C40.8444 17.56 41.2844 15.7667 42.1644 14.54C43.0444 13.3133 44.3177 12.7 45.9844 12.7C47.6644 12.7 48.9377 13.3133 49.8044 14.54C50.6844 15.7667 51.1244 17.5533 51.1244 19.9C51.1244 22.2467 50.6844 24.0533 49.8044 25.32C48.9244 26.5733 47.651 27.2 45.9844 27.2ZM45.9844 25.1C46.891 25.1 47.5577 24.6867 47.9844 23.86C48.4244 23.02 48.6444 21.7 48.6444 19.9C48.6444 18.1133 48.4244 16.82 47.9844 16.02C47.5577 15.2067 46.891 14.8 45.9844 14.8C45.091 14.8 44.4244 15.2067 43.9844 16.02C43.5444 16.82 43.3244 18.1133 43.3244 19.9C43.3244 21.7 43.5444 23.02 43.9844 23.86C44.4244 24.6867 45.091 25.1 45.9844 25.1ZM62.5672 29.3V27.1C61.6872 27.0333 60.8539 26.8733 60.0672 26.62C59.2939 26.3533 58.6205 25.9867 58.0472 25.52L58.8272 23.5C59.4539 23.9667 60.1405 24.3267 60.8872 24.58C61.6339 24.8333 62.4539 24.96 63.3472 24.96C64.3205 24.96 65.0339 24.7867 65.4872 24.44C65.9405 24.0933 66.1672 23.66 66.1672 23.14C66.1672 22.6733 66.0139 22.3 65.7072 22.02C65.4005 21.74 64.8539 21.5133 64.0672 21.34L61.9472 20.88C60.7472 20.6133 59.8405 20.1733 59.2272 19.56C58.6272 18.9333 58.3272 18.1067 58.3272 17.08C58.3272 15.96 58.7072 15.02 59.4672 14.26C60.2405 13.4867 61.2739 13.02 62.5672 12.86V10.6H64.5672V12.84C65.2605 12.9067 65.9339 13.0733 66.5872 13.34C67.2405 13.6067 67.7939 13.9667 68.2472 14.42L67.4872 16.34C66.4739 15.4067 65.1805 14.94 63.6072 14.94C62.7805 14.94 62.1139 15.1333 61.6072 15.52C61.1139 15.8933 60.8672 16.3867 60.8672 17C60.8672 17.4533 61.0205 17.82 61.3272 18.1C61.6339 18.38 62.1272 18.5933 62.8072 18.74L64.9272 19.2C66.2072 19.48 67.1539 19.9267 67.7672 20.54C68.3939 21.14 68.7072 21.94 68.7072 22.94C68.7072 24.06 68.3205 24.98 67.5472 25.7C66.7872 26.4067 65.7939 26.8533 64.5672 27.04V29.3H62.5672Z" fill="#FDFDFD"/>
</svg>
