<svg width="86" height="40" viewBox="0 0 86 40" fill="none" xmlns="http://www.w3.org/2000/svg">
<rect width="86" height="40" rx="4" fill="white" fill-opacity="0.3"/>
<path d="M17.6 27V25.1L22.16 20.24C22.7733 19.5733 23.2133 18.9867 23.48 18.48C23.7467 17.96 23.88 17.4333 23.88 16.9C23.88 15.54 23.06 14.86 21.42 14.86C20.14 14.86 18.96 15.34 17.88 16.3L17.02 14.38C17.58 13.8733 18.28 13.4667 19.12 13.16C19.96 12.8533 20.8333 12.7 21.74 12.7C23.2467 12.7 24.4 13.04 25.2 13.72C26.0133 14.4 26.42 15.3733 26.42 16.64C26.42 17.4933 26.2133 18.3133 25.8 19.1C25.4 19.8867 24.7667 20.7333 23.9 21.64L20.8 24.88H26.96V27H17.6ZM33.7122 27.2C32.7522 27.2 31.8322 27.06 30.9522 26.78C30.0855 26.4867 29.3655 26.0933 28.7922 25.6L29.6322 23.64C30.8322 24.5733 32.1655 25.04 33.6322 25.04C35.4322 25.04 36.3322 24.3333 36.3322 22.92C36.3322 22.2533 36.1055 21.76 35.6522 21.44C35.2122 21.1067 34.5655 20.94 33.7122 20.94H31.4522V18.82H33.4722C34.2189 18.82 34.8122 18.64 35.2522 18.28C35.6922 17.9067 35.9122 17.3933 35.9122 16.74C35.9122 16.1267 35.7055 15.66 35.2922 15.34C34.8922 15.02 34.3055 14.86 33.5322 14.86C32.1455 14.86 30.9255 15.34 29.8722 16.3L29.0322 14.38C29.5922 13.8467 30.2922 13.4333 31.1322 13.14C31.9722 12.8467 32.8455 12.7 33.7522 12.7C35.2189 12.7 36.3589 13.0333 37.1722 13.7C37.9855 14.3533 38.3922 15.2667 38.3922 16.44C38.3922 17.2 38.1989 17.8667 37.8122 18.44C37.4255 19.0133 36.8989 19.4267 36.2322 19.68C37.0455 19.9067 37.6789 20.3267 38.1322 20.94C38.5855 21.54 38.8122 22.2733 38.8122 23.14C38.8122 24.3933 38.3589 25.3867 37.4522 26.12C36.5455 26.84 35.2989 27.2 33.7122 27.2ZM45.9844 27.2C44.3177 27.2 43.0444 26.5733 42.1644 25.32C41.2844 24.0533 40.8444 22.2533 40.8444 19.92C40.8444 17.56 41.2844 15.7667 42.1644 14.54C43.0444 13.3133 44.3177 12.7 45.9844 12.7C47.6644 12.7 48.9377 13.3133 49.8044 14.54C50.6844 15.7667 51.1244 17.5533 51.1244 19.9C51.1244 22.2467 50.6844 24.0533 49.8044 25.32C48.9244 26.5733 47.651 27.2 45.9844 27.2ZM45.9844 25.1C46.891 25.1 47.5577 24.6867 47.9844 23.86C48.4244 23.02 48.6444 21.7 48.6444 19.9C48.6444 18.1133 48.4244 16.82 47.9844 16.02C47.5577 15.2067 46.891 14.8 45.9844 14.8C45.091 14.8 44.4244 15.2067 43.9844 16.02C43.5444 16.82 43.3244 18.1133 43.3244 19.9C43.3244 21.7 43.5444 23.02 43.9844 23.86C44.4244 24.6867 45.091 25.1 45.9844 25.1ZM62.5672 29.3V27.1C61.6872 27.0333 60.8539 26.8733 60.0672 26.62C59.2939 26.3533 58.6205 25.9867 58.0472 25.52L58.8272 23.5C59.4539 23.9667 60.1405 24.3267 60.8872 24.58C61.6339 24.8333 62.4539 24.96 63.3472 24.96C64.3205 24.96 65.0339 24.7867 65.4872 24.44C65.9405 24.0933 66.1672 23.66 66.1672 23.14C66.1672 22.6733 66.0139 22.3 65.7072 22.02C65.4005 21.74 64.8539 21.5133 64.0672 21.34L61.9472 20.88C60.7472 20.6133 59.8405 20.1733 59.2272 19.56C58.6272 18.9333 58.3272 18.1067 58.3272 17.08C58.3272 15.96 58.7072 15.02 59.4672 14.26C60.2405 13.4867 61.2739 13.02 62.5672 12.86V10.6H64.5672V12.84C65.2605 12.9067 65.9339 13.0733 66.5872 13.34C67.2405 13.6067 67.7939 13.9667 68.2472 14.42L67.4872 16.34C66.4739 15.4067 65.1805 14.94 63.6072 14.94C62.7805 14.94 62.1139 15.1333 61.6072 15.52C61.1139 15.8933 60.8672 16.3867 60.8672 17C60.8672 17.4533 61.0205 17.82 61.3272 18.1C61.6339 18.38 62.1272 18.5933 62.8072 18.74L64.9272 19.2C66.2072 19.48 67.1539 19.9267 67.7672 20.54C68.3939 21.14 68.7072 21.94 68.7072 22.94C68.7072 24.06 68.3205 24.98 67.5472 25.7C66.7872 26.4067 65.7939 26.8533 64.5672 27.04V29.3H62.5672Z" fill="#FDFDFD"/>
</svg>
